<svg xmlns="http://www.w3.org/2000/svg" width="128" height="23.8" viewBox="0 0 128 23.8"><title>Chase Bank logo - Brandlogos.net</title><path d="M432.7,372.1a.79.79,0,0,0-.8.8v5.9h15.6l-7.1-6.7Z" transform="translate(-320 -372.1)" style="fill:#126bc5"/><path d="M448,380.6a.79.79,0,0,0-.8-.8h-5.9v15.6l6.7-7.1Z" transform="translate(-320 -372.1)" style="fill:#126bc5"/><path d="M439.5,395.9a.79.79,0,0,0,.8-.8v-5.9H424.7l7.1,6.7Z" transform="translate(-320 -372.1)" style="fill:#126bc5"/><path d="M424.2,387.4a.79.79,0,0,0,.8.8h5.9V372.7l-6.7,7.1Z" transform="translate(-320 -372.1)" style="fill:#126bc5"/><polygon points="32.9 2.8 32.9 10 22.9 10 22.9 2.8 19.3 2.8 19.3 21 22.9 21 22.9 13.2 32.9 13.2 32.9 21 36.6 21 36.6 2.8 32.9 2.8"/><polygon points="81.4 2.8 81.4 20.9 97.4 20.9 95.4 17.8 85.1 17.8 85.1 13.2 95 13.2 95 10.1 85.1 10.1 85.1 6 95.3 6 97.3 2.8 81.4 2.8"/><path d="M325.7,374.9c-3.8,0-5.7,2.3-5.7,5.7v6.8c0,3.9,2.5,5.7,5.7,5.7h11.4l-2.1-3.4h-8.6c-1.8,0-2.6-.7-2.6-2.7v-6.1c0-2,.7-2.8,2.7-2.8h8.6l2-3.2Z" transform="translate(-320 -372.1)"/><path d="M385.4,374.9c-2.2,0-4.4,1.3-4.4,4.7v.9c0,3.5,2.2,4.9,4.3,4.9h7.6c.8,0,1.4.1,1.4,1.5v1.5c0,1.2-.6,1.5-1.5,1.5h-10l-2,3.2h12.3c3,0,5-1.5,5-4.9V387c0-3.3-1.9-4.8-4.8-4.8H386c-.8,0-1.4-.2-1.4-1.4v-1.4c0-1,.4-1.4,1.3-1.4h9.5l2-3.1Z" transform="translate(-320 -372.1)"/><path d="M367.2,374.9,358.6,393h4.1l1.7-3.7h9.3l1.7,3.7h4.1l-8.7-18.1Zm1.7,3.8,3.3,7.5h-6.6Z" transform="translate(-320 -372.1)"/></svg>